<?xml version="1.0" encoding="UTF-8" standalone="no"?>
<svg
   xmlns:dc="http://purl.org/dc/elements/1.1/"
   xmlns:cc="http://creativecommons.org/ns#"
   xmlns:rdf="http://www.w3.org/1999/02/22-rdf-syntax-ns#"
   xmlns:svg="http://www.w3.org/2000/svg"
   xmlns="http://www.w3.org/2000/svg"
   xmlns:sodipodi="http://sodipodi.sourceforge.net/DTD/sodipodi-0.dtd"
   xmlns:inkscape="http://www.inkscape.org/namespaces/inkscape"
   viewBox="0 0 144 80"
   version="1.1"
   id="svg8903"
   sodipodi:docname="logo.svg"
   inkscape:version="1.0.1 (3bc2e813f5, 2020-09-07)">
  <metadata
     id="metadata8907">
    <rdf:RDF>
      <cc:Work
         rdf:about="">
        <dc:format>image/svg+xml</dc:format>
        <dc:type
           rdf:resource="http://purl.org/dc/dcmitype/StillImage" />
      </cc:Work>
    </rdf:RDF>
  </metadata>
  <sodipodi:namedview
     pagecolor="#ffffff"
     bordercolor="#666666"
     borderopacity="1"
     objecttolerance="10"
     gridtolerance="10"
     guidetolerance="10"
     inkscape:pageopacity="0"
     inkscape:pageshadow="2"
     inkscape:window-width="2560"
     inkscape:window-height="1573"
     id="namedview8905"
     showgrid="false"
     inkscape:zoom="9.5277778"
     inkscape:cx="72"
     inkscape:cy="40"
     inkscape:window-x="2560"
     inkscape:window-y="-10"
     inkscape:window-maximized="1"
     inkscape:current-layer="svg8903" />
  <defs
     id="defs8815">
    <style
       id="style8813">
      .cls-1 {
        fill: #7dbb48;
      }

      .cls-2 {
        fill: #28abe3;
      }

      .cls-3 {
        fill: #e32185;
      }

      .cls-4 {
        fill: #ef7b24;
      }

      .cls-5 {
        font-size: 10px;
        font-family: WorkSans-Bold, Work Sans;
        font-weight: 700;
      }

      .cls-6 {
        letter-spacing: -0.02em;
      }
    </style>
  </defs>
  <title
     id="title8817">Data Set 61</title>
  <g
     id="logo"
     inkscape:export-xdpi="720"
     inkscape:export-ydpi="720">
    <g
       id="g8893">
      <g
         id="g8867">
        <g
           id="g8833">
          <path
             d="M 12.54,60.19 V 60.9 H 8 v -6.24 h 4.4 v 0.71 H 8.76 v 2 h 2.83 v 0.71 H 8.76 v 2.09 z"
             id="path8819" />
          <path
             d="m 16.73,56.18 -0.15,0.73 a 1.31,1.31 0 0 0 -0.6,-0.12 1.16,1.16 0 0 0 -0.6,0.18 1.23,1.23 0 0 0 -0.47,0.53 1.84,1.84 0 0 0 -0.19,0.85 V 60.9 H 14 v -4.72 h 0.62 l 0.11,0.77 a 1.51,1.51 0 0 1 1.52,-0.87 1.07,1.07 0 0 1 0.48,0.1 z"
             id="path8821" />
          <path
             d="M 22.28,60.31 22.23,60.9 A 1.56,1.56 0 0 1 21.66,61 0.91,0.91 0 0 1 21.08,60.84 0.74,0.74 0 0 1 20.81,60.3 1.52,1.52 0 0 1 20.17,60.82 2.28,2.28 0 0 1 19.28,61 1.92,1.92 0 0 1 18.12,60.67 1.06,1.06 0 0 1 17.66,59.73 1.17,1.17 0 0 1 18.14,58.8 2.85,2.85 0 0 1 19.51,58.26 l 1.27,-0.21 v -0.27 a 1,1 0 0 0 -0.3,-0.75 1.11,1.11 0 0 0 -0.81,-0.29 1.52,1.52 0 0 0 -0.83,0.23 1.44,1.44 0 0 0 -0.53,0.67 l -0.56,-0.4 a 1.55,1.55 0 0 1 0.71,-0.85 2.34,2.34 0 0 1 1.21,-0.31 2.11,2.11 0 0 1 1.35,0.41 1.42,1.42 0 0 1 0.52,1.2 V 60 a 0.3,0.3 0 0 0 0.36,0.34 1.65,1.65 0 0 0 0.38,-0.03 z m -1.93,-0.26 a 0.86,0.86 0 0 0 0.43,-0.73 v -0.66 l -1.07,0.2 a 2.66,2.66 0 0 0 -0.95,0.33 0.62,0.62 0 0 0 -0.31,0.54 0.51,0.51 0 0 0 0.23,0.45 1,1 0 0 0 0.63,0.16 1.87,1.87 0 0 0 1.04,-0.29 z"
             id="path8823" />
          <path
             d="m 24.06,60.73 a 1.7,1.7 0 0 1 -0.81,-0.8 l 0.62,-0.43 a 1.19,1.19 0 0 0 0.56,0.63 2,2 0 0 0 0.94,0.21 1.56,1.56 0 0 0 0.86,-0.2 0.59,0.59 0 0 0 0.29,-0.5 0.49,0.49 0 0 0 -0.27,-0.44 3.13,3.13 0 0 0 -1,-0.29 4.74,4.74 0 0 1 -1.09,-0.3 1.32,1.32 0 0 1 -0.57,-0.44 1.13,1.13 0 0 1 -0.19,-0.67 1.23,1.23 0 0 1 0.23,-0.71 1.6,1.6 0 0 1 0.66,-0.52 2.5,2.5 0 0 1 1,-0.19 2.32,2.32 0 0 1 1.22,0.28 1.62,1.62 0 0 1 0.66,0.86 l -0.65,0.37 a 1.15,1.15 0 0 0 -0.46,-0.65 1.59,1.59 0 0 0 -1.56,0 0.59,0.59 0 0 0 -0.33,0.48 0.57,0.57 0 0 0 0.28,0.49 3.28,3.28 0 0 0 1,0.29 3.2,3.2 0 0 1 1.39,0.48 1.08,1.08 0 0 1 0.41,0.91 1.16,1.16 0 0 1 -0.24,0.72 1.59,1.59 0 0 1 -0.69,0.5 A 2.85,2.85 0 0 1 25.3,61 2.79,2.79 0 0 1 24.06,60.73 Z"
             id="path8825" />
          <path
             d="m 35.17,56.27 a 1.51,1.51 0 0 1 0.67,0.61 1.83,1.83 0 0 1 0.26,1 v 3 H 35.34 V 58 A 1.19,1.19 0 0 0 35,57 a 1.13,1.13 0 0 0 -0.81,-0.3 1.29,1.29 0 0 0 -0.7,0.19 1.33,1.33 0 0 0 -0.51,0.54 1.71,1.71 0 0 0 -0.2,0.84 V 60.9 H 32.02 V 58 a 1.19,1.19 0 0 0 -0.31,-0.91 1.09,1.09 0 0 0 -0.81,-0.3 1.31,1.31 0 0 0 -0.66,0.18 1.4,1.4 0 0 0 -0.54,0.54 1.84,1.84 0 0 0 -0.2,0.92 v 2.47 h -0.76 v -4.72 h 0.66 l 0.05,0.73 a 1.61,1.61 0 0 1 0.65,-0.62 1.86,1.86 0 0 1 0.87,-0.21 2,2 0 0 1 1,0.24 1.54,1.54 0 0 1 0.67,0.69 1.44,1.44 0 0 1 0.69,-0.69 2.11,2.11 0 0 1 1,-0.24 2.17,2.17 0 0 1 0.84,0.19 z"
             id="path8827" />
          <path
             d="m 42,56.18 v 4.72 h -0.67 l -0.05,-0.71 a 2.12,2.12 0 0 1 -2.95,0.38 1.62,1.62 0 0 1 -0.49,-1.3 v -3.09 h 0.76 v 2.89 a 1.37,1.37 0 0 0 0.28,1 1.14,1.14 0 0 0 0.84,0.29 1.59,1.59 0 0 0 1.09,-0.4 1.56,1.56 0 0 0 0.43,-1.19 v -2.59 z"
             id="path8829" />
          <path
             d="m 44.2,60.73 a 1.7,1.7 0 0 1 -0.81,-0.8 L 44,59.5 a 1.12,1.12 0 0 0 0.56,0.63 2,2 0 0 0 0.94,0.21 1.52,1.52 0 0 0 0.85,-0.2 0.58,0.58 0 0 0 0.3,-0.5 0.48,0.48 0 0 0 -0.28,-0.44 3,3 0 0 0 -1,-0.29 4.79,4.79 0 0 1 -1.08,-0.3 1.29,1.29 0 0 1 -0.58,-0.44 1.2,1.2 0 0 1 -0.18,-0.67 1.23,1.23 0 0 1 0.23,-0.71 1.63,1.63 0 0 1 0.65,-0.52 2.57,2.57 0 0 1 1,-0.19 2.27,2.27 0 0 1 1.22,0.28 1.53,1.53 0 0 1 0.66,0.86 l -0.64,0.37 a 1.2,1.2 0 0 0 -0.46,-0.65 1.46,1.46 0 0 0 -0.78,-0.2 1.43,1.43 0 0 0 -0.79,0.21 0.59,0.59 0 0 0 -0.32,0.48 0.55,0.55 0 0 0 0.28,0.49 3.19,3.19 0 0 0 1,0.29 3.25,3.25 0 0 1 1.4,0.48 1.11,1.11 0 0 1 0.41,0.91 1.16,1.16 0 0 1 -0.24,0.72 1.68,1.68 0 0 1 -0.7,0.5 2.82,2.82 0 0 1 -1,0.18 2.74,2.74 0 0 1 -1.25,-0.27 z"
             id="path8831" />
        </g>
        <g
           id="g8849">
          <path
             d="m 58.48,55.89 -0.66,0.53 a 2.06,2.06 0 0 0 -0.68,-0.88 1.88,1.88 0 0 0 -1.08,-0.26 2,2 0 0 0 -1.13,0.29 0.91,0.91 0 0 0 -0.42,0.77 0.81,0.81 0 0 0 0.16,0.5 1.26,1.26 0 0 0 0.54,0.34 5,5 0 0 0 1,0.26 3.87,3.87 0 0 1 1.76,0.63 1.37,1.37 0 0 1 0.52,1.15 1.52,1.52 0 0 1 -0.3,0.93 1.92,1.92 0 0 1 -0.85,0.63 3.75,3.75 0 0 1 -2.89,-0.15 2.54,2.54 0 0 1 -1,-1 L 54.1,59.1 a 1.93,1.93 0 0 0 0.76,0.86 2.3,2.3 0 0 0 1.25,0.31 A 2.24,2.24 0 0 0 57.31,60 0.84,0.84 0 0 0 57.74,59.24 0.73,0.73 0 0 0 57.36,58.58 3.68,3.68 0 0 0 56,58.18 4.11,4.11 0 0 1 54.23,57.56 1.35,1.35 0 0 1 53.71,56.42 1.61,1.61 0 0 1 54,55.5 a 1.92,1.92 0 0 1 0.82,-0.68 2.79,2.79 0 0 1 1.23,-0.25 2.58,2.58 0 0 1 2.43,1.32 z"
             id="path8835" />
          <path
             d="m 63.12,60.57 a 1.76,1.76 0 0 1 -1.23,0.43 1.38,1.38 0 0 1 -0.94,-0.31 1.22,1.22 0 0 1 -0.38,-1 v -2.9 h -1 v -0.65 h 1 V 55 l 0.76,-0.21 v 1.35 h 1.76 v 0.65 h -1.76 v 2.81 a 0.67,0.67 0 0 0 0.2,0.52 0.77,0.77 0 0 0 0.51,0.17 1.11,1.11 0 0 0 0.81,-0.35 z"
             id="path8837" />
          <path
             d="m 68.48,56.18 v 4.72 h -0.66 v -0.71 a 1.8,1.8 0 0 1 -1.7,0.81 1.84,1.84 0 0 1 -1.26,-0.43 1.62,1.62 0 0 1 -0.49,-1.3 v -3.09 h 0.76 v 2.89 a 1.37,1.37 0 0 0 0.29,1 1.12,1.12 0 0 0 0.83,0.29 1.57,1.57 0 0 0 1.09,-0.4 1.52,1.52 0 0 0 0.43,-1.19 v -2.59 z"
             id="path8839" />
          <path
             d="m 74.53,54 v 6.9 h -0.66 l -0.05,-0.82 a 1.59,1.59 0 0 1 -0.64,0.67 1.91,1.91 0 0 1 -1,0.25 2,2 0 0 1 -1.59,-0.66 3.08,3.08 0 0 1 0,-3.6 2,2 0 0 1 1.59,-0.66 1.91,1.91 0 0 1 0.93,0.23 1.61,1.61 0 0 1 0.64,0.6 V 54 Z m -1.16,5.86 a 1.85,1.85 0 0 0 0.4,-1.26 v -0.12 a 1.85,1.85 0 0 0 -0.4,-1.26 1.35,1.35 0 0 0 -1.09,-0.48 1.33,1.33 0 0 0 -1.09,0.49 2.35,2.35 0 0 0 0,2.62 1.33,1.33 0 0 0 1.09,0.49 1.35,1.35 0 0 0 1.09,-0.48 z"
             id="path8841" />
          <path
             d="m 80.4,58.82 h -3.58 a 1.76,1.76 0 0 0 0.48,1.12 1.51,1.51 0 0 0 1.07,0.4 1.87,1.87 0 0 0 0.87,-0.18 1,1 0 0 0 0.47,-0.52 l 0.64,0.33 a 2,2 0 0 1 -0.76,0.76 2.45,2.45 0 0 1 -1.22,0.27 2.2,2.2 0 0 1 -1.68,-0.65 2.55,2.55 0 0 1 -0.62,-1.81 2.63,2.63 0 0 1 0.59,-1.81 2.12,2.12 0 0 1 1.65,-0.65 2.21,2.21 0 0 1 1.15,0.29 2,2 0 0 1 0.74,0.8 2.56,2.56 0 0 1 0.24,1.12 3.08,3.08 0 0 1 -0.04,0.53 z m -3.1,-1.71 a 1.74,1.74 0 0 0 -0.47,1 h 2.88 a 1.72,1.72 0 0 0 -0.44,-1 1.27,1.27 0 0 0 -1,-0.38 1.44,1.44 0 0 0 -0.97,0.38 z"
             id="path8843" />
          <path
             d="m 85.61,56.55 a 1.66,1.66 0 0 1 0.52,1.33 v 3 h -0.76 v -2.74 a 1.47,1.47 0 0 0 -0.32,-1.07 1.11,1.11 0 0 0 -0.85,-0.33 1.58,1.58 0 0 0 -0.71,0.17 1.35,1.35 0 0 0 -0.55,0.54 1.9,1.9 0 0 0 -0.21,0.94 V 60.9 H 82 v -4.72 h 0.67 v 0.73 a 1.54,1.54 0 0 1 0.66,-0.63 2.2,2.2 0 0 1 0.94,-0.2 1.93,1.93 0 0 1 1.34,0.47 z"
             id="path8845" />
          <path
             d="m 90.79,60.57 a 1.72,1.72 0 0 1 -1.22,0.43 1.41,1.41 0 0 1 -0.95,-0.31 1.21,1.21 0 0 1 -0.37,-1 v -2.9 h -1 v -0.65 h 1 V 55 l 0.76,-0.21 v 1.35 h 1.76 v 0.65 H 89 v 2.81 a 0.67,0.67 0 0 0 0.19,0.52 0.79,0.79 0 0 0 0.52,0.17 1.13,1.13 0 0 0 0.81,-0.35 z"
             id="path8847" />
        </g>
        <g
           id="g8865">
          <path
             d="m 101.77,60.9 h -0.94 L 98.2,56.72 97.54,55.5 v 0 1 4.4 h -0.73 v -6.24 h 1 l 2.61,4.16 0.67,1.25 v 0 -1 -4.41 h 0.73 z"
             id="path8851" />
          <path
             d="m 107.79,58.82 h -3.58 a 1.66,1.66 0 0 0 0.48,1.12 1.49,1.49 0 0 0 1.07,0.4 1.87,1.87 0 0 0 0.87,-0.18 1,1 0 0 0 0.47,-0.52 l 0.63,0.33 a 1.92,1.92 0 0 1 -0.76,0.76 2.41,2.41 0 0 1 -1.21,0.27 2.22,2.22 0 0 1 -1.69,-0.65 2.54,2.54 0 0 1 -0.61,-1.81 2.63,2.63 0 0 1 0.58,-1.81 2.12,2.12 0 0 1 1.66,-0.65 2.23,2.23 0 0 1 1.15,0.29 1.94,1.94 0 0 1 0.73,0.8 2.43,2.43 0 0 1 0.25,1.12 3.08,3.08 0 0 1 -0.04,0.53 z m -3.1,-1.71 a 1.68,1.68 0 0 0 -0.47,1 h 2.88 a 1.72,1.72 0 0 0 -0.44,-1 1.27,1.27 0 0 0 -1,-0.38 1.43,1.43 0 0 0 -0.97,0.38 z"
             id="path8853" />
          <path
             d="M 112.26,60.57 A 1.72,1.72 0 0 1 111,61 a 1.41,1.41 0 0 1 -1,-0.31 1.21,1.21 0 0 1 -0.37,-1 v -2.9 h -1 v -0.65 h 1 V 55 l 0.76,-0.21 v 1.35 h 1.76 v 0.65 h -1.76 v 2.81 a 0.67,0.67 0 0 0 0.19,0.52 0.79,0.79 0 0 0 0.52,0.17 1.13,1.13 0 0 0 0.81,-0.35 z"
             id="path8855" />
          <path
             d="M 120.64,56.18 119,60.9 h -0.76 l -1.34,-3.76 -1.26,3.76 h -0.76 l -1.66,-4.72 h 0.85 l 1.2,3.85 1.29,-3.85 h 0.76 l 1.28,3.82 1.2,-3.85 z"
             id="path8857" />
          <path
             d="m 125.54,56.73 a 3,3 0 0 1 0,3.62 2.22,2.22 0 0 1 -1.69,0.65 2.18,2.18 0 0 1 -1.68,-0.65 3,3 0 0 1 0,-3.62 2.18,2.18 0 0 1 1.68,-0.65 2.22,2.22 0 0 1 1.69,0.65 z m -2.82,0.49 a 2.33,2.33 0 0 0 0,2.64 1.55,1.55 0 0 0 2.26,0 2.33,2.33 0 0 0 0,-2.64 1.55,1.55 0 0 0 -2.26,0 z"
             id="path8859" />
          <path
             d="m 130.46,56.18 -0.15,0.73 a 1.31,1.31 0 0 0 -0.6,-0.12 1.13,1.13 0 0 0 -0.6,0.18 1.23,1.23 0 0 0 -0.47,0.53 1.84,1.84 0 0 0 -0.19,0.85 v 2.55 h -0.76 v -4.72 h 0.62 l 0.11,0.77 a 1.51,1.51 0 0 1 1.52,-0.87 1.07,1.07 0 0 1 0.52,0.1 z"
             id="path8861" />
          <path
             d="m 133.48,58.57 -1,1 v 1.33 h -0.76 V 54 h 0.76 v 4.63 l 2.46,-2.45 h 0.95 L 134,58 l 2,2.88 h -0.92 z"
             id="path8863" />
        </g>
      </g>
      <path
         d="m 77,40 v 3 a 1,1 0 0 1 -1,1 H 57 A 1,1 0 0 1 56,43 V 13 a 1,1 0 0 1 1,-1 h 18 a 1,1 0 0 1 1,1 v 3 a 1,1 0 0 1 -1,1 H 61 v 9 h 11 a 1,1 0 0 1 1,1 v 3 a 1,1 0 0 1 -1,1 H 61 v 8 h 15 a 1,1 0 0 1 1,1 z"
         id="path8869" />
      <path
         d="m 116,44 h -3 a 1,1 0 0 1 -1,-1 V 13 a 1,1 0 0 1 1,-1 h 4.4 a 1,1 0 0 1 0.88,0.52 L 131,36 V 13 a 1,1 0 0 1 1,-1 h 3 a 1,1 0 0 1 1,1 v 30 a 1,1 0 0 1 -1,1 h -4.42 a 1,1 0 0 1 -0.87,-0.51 L 117,21 v 22 a 1,1 0 0 1 -1,1 z"
         id="path8871" />
      <g
         id="g8889">
        <path
           class="cls-1"
           d="M 31,9 V 20.76 L 29.66,24 H 26.34 L 25,20.76 V 9 a 1,1 0 0 1 1,-1 h 4 a 1,1 0 0 1 1,1 z"
           id="path8873" />
        <path
           class="cls-2"
           d="M 16.71,12.69 25,20.76 26.35,24 24,26.35 20.76,25 12.69,16.71 a 1,1 0 0 1 0,-1.41 l 2.6,-2.6 a 1,1 0 0 1 1.42,-0.01 z"
           id="path8875" />
        <path
           class="cls-3"
           d="M 9,25 H 20.76 L 24,26.34 v 3.32 L 20.76,31 H 9 A 1,1 0 0 1 8,30 v -4 a 1,1 0 0 1 1,-1 z"
           id="path8877" />
        <path
           class="cls-4"
           d="M 12.47,39.29 20.76,31 24,29.65 26.35,32 25,35.24 l -8.32,8.1 a 1,1 0 0 1 -1.38,0 l -2.81,-2.62 a 1,1 0 0 1 -0.02,-1.43 z"
           id="path8879" />
        <path
           class="cls-2"
           d="M 25,47 V 35.24 L 26.34,32 h 3.32 L 31,35.24 V 47 a 1,1 0 0 1 -1,1 h -4 a 1,1 0 0 1 -1,-1 z"
           id="path8881" />
        <path
           class="cls-1"
           d="M 39.29,43.31 31,35.24 29.65,32 32,29.65 35.24,31 l 8.07,8.29 a 1,1 0 0 1 0,1.41 l -2.6,2.6 a 1,1 0 0 1 -1.42,0.01 z"
           id="path8883" />
        <path
           class="cls-4"
           d="M 47,31 H 35.24 L 32,29.66 V 26.34 L 35.24,25 H 47 a 1,1 0 0 1 1,1 v 4 a 1,1 0 0 1 -1,1 z"
           id="path8885" />
        <path
           class="cls-3"
           d="M 43.31,16.71 35.24,25 32,26.35 29.65,24 31,20.76 39.29,12.69 a 1,1 0 0 1 1.41,0 l 2.6,2.6 a 1,1 0 0 1 0.01,1.42 z"
           id="path8887" />
      </g>
      <path
         d="m 106.08,35.3 a 8.31,8.31 0 0 1 -1.52,4.93 9.63,9.63 0 0 1 -4.26,3.27 17.64,17.64 0 0 1 -14.23,-0.75 13.78,13.78 0 0 1 -3.4,-2.92 1,1 0 0 1 0.16,-1.45 l 2.33,-1.75 a 1,1 0 0 1 1.42,0.23 6.77,6.77 0 0 0 1.88,1.81 10.33,10.33 0 0 0 5.67,1.45 9.79,9.79 0 0 0 5.34,-1.26 3.75,3.75 0 0 0 1.85,-3.37 3.29,3.29 0 0 0 -1.59,-2.88 17.84,17.84 0 0 0 -6.23,-2 c -0.54,-0.1 -1,-0.2 -1.54,-0.31 a 17.44,17.44 0 0 1 -7.15,-2.9 7.38,7.38 0 0 1 -2.67,-6 8.86,8.86 0 0 1 1.44,-4.88 9.92,9.92 0 0 1 4.08,-3.52 13.81,13.81 0 0 1 6.12,-1.3 c 5,0 9.16,1.84 11.69,5.51 a 1,1 0 0 1 -0.21,1.39 l -2.36,1.77 A 1,1 0 0 1 101.46,20.1 9.11,9.11 0 0 0 98.66,17.44 8.39,8.39 0 0 0 93.82,16.23 8.36,8.36 0 0 0 88.71,17.61 4,4 0 0 0 87,21 3.4,3.4 0 0 0 87.66,23.19 5.74,5.74 0 0 0 90,24.7 25.08,25.08 0 0 0 94.82,26 c 0.55,0.1 1.08,0.2 1.59,0.32 a 16.34,16.34 0 0 1 7,2.9 7.59,7.59 0 0 1 2.67,6.08 z"
         id="path8891" />
    </g>
  </g>
  <g
     id="title"
     inkscape:export-xdpi="720"
     inkscape:export-ydpi="720">
    <text
       class="cls-5"
       transform="translate(89.46,72.02)"
       id="text8900">VU<tspan
   class="cls-6"
   x="13.96"
   y="0"
   id="tspan8896">T</tspan><tspan
   x="20.32"
   y="0"
   xml:space="preserve"
   id="tspan8898"> Brno</tspan></text>
  </g>
</svg>
